<?xml version="1.0" encoding="UTF-8"?>
<svg width="755px" height="195px" viewBox="0 0 755 195" version="1.1" xmlns="http://www.w3.org/2000/svg" xmlns:xlink="http://www.w3.org/1999/xlink">
    <!-- Generator: Sketch 45.1 (43504) - http://www.bohemiancoding.com/sketch -->
    <title>logo</title>
    <desc>Created with Sketch.</desc>
    <defs></defs>
    <g id="Page-1" stroke="none" stroke-width="1" fill="none" fill-rule="evenodd">
        <g id="customerX_v02" transform="translate(-402.000000, -224.000000)">
            <g id="logo" transform="translate(402.000000, 224.000000)">
                <g id="Group-4" transform="translate(546.000000, 0.000000)">
                    <g id="if__conversation_message_2006583" transform="translate(0.000000, 0.327762)">
                        <path d="M45.4927235,166.511709 C44.5974992,166.511709 44.5974992,166.511709 43.702275,166.511709 C41.9118265,165.616485 41.0166023,163.826036 41.0166023,162.035588 L41.0166023,135.17886 L23.1121175,135.17886 C10.5789781,135.17886 0.731511428,125.331394 0.731511428,112.798254 L0.731511428,22.380606 C0.731511428,9.84746665 10.5789781,0 23.1121175,0 L186.042929,0 C198.576069,0 208.423535,9.84746665 208.423535,22.380606 L208.423535,112.798254 C208.423535,125.331394 198.576069,135.17886 186.042929,135.17886 L75.0351234,135.17886 L48.1783962,164.72126 C47.283172,166.511709 46.3879477,166.511709 45.4927235,166.511709 Z" id="Shape" fill="#FFFFFF" fill-rule="nonzero"></path>
                        <path d="M71.6862547,35.9453824 L81.4336996,26.3764622 C82.2192119,25.6147533 82.8440418,24.847105 83.3082082,24.0734944 C83.7723746,23.2998838 84.0044543,22.4132203 84.0044543,21.4134774 C84.0044543,20.2233072 83.6176548,19.2771362 82.8440442,18.5749358 C82.0704336,17.8727354 81.112361,17.5216404 79.9697976,17.5216404 C78.755824,17.5216404 77.7798991,17.932243 77.0419936,18.7534604 C76.3040881,19.5746778 75.8518303,20.6041595 75.6852064,21.8419365 L71.50773,21.1992478 C71.6267471,20.1518981 71.9242851,19.1878747 72.4003532,18.3071488 C72.8764213,17.4264229 73.483399,16.6647254 74.2213045,16.0220335 C74.95921,15.3793416 75.8220704,14.8735269 76.8099116,14.5045741 C77.7977528,14.1356214 78.8748407,13.9511478 80.0412075,13.9511478 C81.136164,13.9511478 82.1894488,14.1058676 83.2010934,14.4153118 C84.2127381,14.7247561 85.1113031,15.1948662 85.8968154,15.8256564 C86.6823277,16.4564466 87.3071576,17.2300456 87.771324,18.1464766 C88.2354904,19.0629077 88.4675701,20.128094 88.4675701,21.3420675 C88.4675701,22.1513833 88.3604564,22.90713 88.1462257,23.6093304 C87.9319951,24.3115308 87.6404078,24.9720653 87.271455,25.5909538 C86.9025023,26.2098423 86.4740475,26.7989677 85.9860777,27.3583476 C85.4981079,27.9177276 84.9684901,28.4592469 84.3972085,28.9829218 L77.1134035,35.9453824 L88.503275,35.9453824 L88.503275,39.8729243 L71.6862547,39.8729243 L71.6862547,35.9453824 Z M110.997379,39.8729243 L106.927017,39.8729243 L106.927017,37.3021696 L106.855607,37.3021696 C106.260522,38.3019126 105.433366,39.06361 104.374115,39.5872849 C103.314863,40.1109598 102.178268,40.3727933 100.964294,40.3727933 C99.6551071,40.3727933 98.4828071,40.1288121 97.4473591,39.6408423 C96.411911,39.1528725 95.5311983,38.4982888 94.8051945,37.6770714 C94.0791907,36.8558539 93.5198191,35.8918306 93.127063,34.7849723 C92.7343068,33.6781141 92.5379317,32.4939125 92.5379317,31.2323322 C92.5379317,29.9707518 92.7402576,28.792501 93.1449154,27.6975444 C93.5495733,26.6025879 94.1208464,25.650466 94.8587519,24.8411503 C95.5966574,24.0318346 96.4773701,23.3951031 97.5009164,22.9309368 C98.5244628,22.4667704 99.643206,22.2346907 100.85718,22.2346907 C101.642692,22.2346907 102.344882,22.3239521 102.96377,22.5024777 C103.582659,22.6810032 104.124178,22.9011814 104.588344,23.1630188 C105.052511,23.4248562 105.451212,23.7104928 105.784459,24.019937 C106.117707,24.3293813 106.391442,24.6269193 106.605673,24.9125602 L106.712787,24.9125602 L106.712787,12.88 L110.997379,12.88 L110.997379,39.8729243 Z M96.8939327,31.2323322 C96.8939327,31.8988274 96.9950956,32.5653127 97.1974246,33.231808 C97.3997535,33.8983033 97.7032423,34.4933795 98.1079002,35.0170543 C98.512558,35.5407292 99.0243235,35.969184 99.643212,36.3024317 C100.262101,36.6356793 100.988093,36.8023007 101.821213,36.8023007 C102.606725,36.8023007 103.308915,36.6416301 103.927803,36.3202842 C104.546692,35.9989382 105.076309,35.5764341 105.516672,35.0527593 C105.957035,34.5290844 106.290278,33.939959 106.51641,33.2853654 C106.742543,32.6307718 106.855607,31.9702373 106.855607,31.303742 C106.855607,30.6372467 106.742543,29.9707614 106.51641,29.3042661 C106.290278,28.6377708 105.957035,28.0426947 105.516672,27.5190198 C105.076309,26.9953449 104.546692,26.5668901 103.927803,26.2336425 C103.308915,25.9003948 102.606725,25.7337735 101.821213,25.7337735 C100.988093,25.7337735 100.262101,25.8944441 99.643212,26.21579 C99.0243235,26.5371359 98.512558,26.95964 98.1079002,27.4833149 C97.7032423,28.0069898 97.3997535,28.5961151 97.1974246,29.2507087 C96.9950956,29.9053023 96.8939327,30.5658369 96.8939327,31.2323322 Z M126.850366,37.6949238 L126.743251,37.6949238 C126.31479,38.4566327 125.624502,39.0814627 124.672365,39.5694325 C123.720229,40.0574022 122.637191,40.3013834 121.423217,40.3013834 C120.732918,40.3013834 120.012876,40.212122 119.263069,40.0335965 C118.513262,39.855071 117.822974,39.5575329 117.192183,39.1409733 C116.561393,38.7244138 116.037726,38.1769437 115.621167,37.4985467 C115.204607,36.8201497 114.99633,35.9810924 114.99633,34.9813494 C114.99633,33.6959656 115.359327,32.6724347 116.085331,31.9107258 C116.811334,31.1490168 117.745604,30.5658422 118.888167,30.1611844 C120.030731,29.7565265 121.298243,29.4887422 122.690742,29.3578235 C124.083241,29.2269048 125.445965,29.1614464 126.778956,29.1614464 L126.778956,28.7329873 C126.778956,27.6618342 126.392157,26.8703829 125.618546,26.3586097 C124.844935,25.8468365 123.922567,25.5909538 122.851414,25.5909538 C121.946885,25.5909538 121.078074,25.7813782 120.244955,26.1622326 C119.411835,26.5430871 118.721547,27.0072465 118.174069,27.5547247 L115.960363,24.9482651 C116.936303,24.0437358 118.060997,23.365349 119.334479,22.9130843 C120.607961,22.4608196 121.899276,22.2346907 123.208463,22.2346907 C124.731881,22.2346907 125.987492,22.4489181 126.975333,22.8773794 C127.963174,23.3058406 128.742724,23.8652122 129.314006,24.5555109 C129.885288,25.2458096 130.283989,26.0194086 130.510121,26.8763311 C130.736253,27.7332537 130.849318,28.5901633 130.849318,29.4470858 L130.849318,39.8729243 L126.850366,39.8729243 L126.850366,37.6949238 Z M126.778956,32.0535455 L125.814923,32.0535455 C125.124624,32.0535455 124.398631,32.0832993 123.636923,32.1428078 C122.875214,32.2023163 122.173024,32.333233 121.530332,32.535562 C120.88764,32.7378909 120.352071,33.0235274 119.92361,33.3924802 C119.495149,33.7614329 119.280922,34.2672477 119.280922,34.9099396 C119.280922,35.3145974 119.370183,35.6537908 119.548708,35.92753 C119.727234,36.2012691 119.959314,36.4214473 120.244955,36.5880711 C120.530595,36.7546949 120.851936,36.8737102 121.208988,36.9451204 C121.566039,37.0165306 121.923084,37.0522351 122.280135,37.0522351 C123.755946,37.0522351 124.87469,36.6594849 125.636398,35.8739726 C126.398107,35.0884603 126.778956,34.0173232 126.778956,32.6605292 L126.778956,32.0535455 Z M27.9298674,46.8692555 L44.6754779,46.8692555 L44.6754779,50.7967974 L32.4286881,50.7967974 L32.4286881,57.2236841 L44.0327892,57.2236841 L44.0327892,61.0084063 L32.4286881,61.0084063 L32.4286881,68.1493916 L45.3181666,68.1493916 L45.3181666,72.1483433 L27.9298674,72.1483433 L27.9298674,46.8692555 Z M49.7098725,46.8692555 L58.671809,46.8692555 C60.3142438,46.8692555 61.9685556,47.0834829 63.6347938,47.5119441 C65.301032,47.9404054 66.8006239,48.648546 68.1336145,49.6363873 C69.4666051,50.6242285 70.5496437,51.9214945 71.3827628,53.5282242 C72.2158819,55.134954 72.6324352,57.1284591 72.6324352,59.5087994 C72.6324352,61.7225159 72.2158819,63.6267596 71.3827628,65.2215876 C70.5496437,66.8164156 69.4666051,68.1255832 68.1336145,69.1491295 C66.8006239,70.1726759 65.301032,70.9284226 63.6347938,71.4163923 C61.9685556,71.9043621 60.3142438,72.1483433 58.671809,72.1483433 L49.7098725,72.1483433 L49.7098725,46.8692555 Z M57.9577105,68.2208014 C59.1240773,68.2208014 60.2904265,68.0839339 61.4567933,67.8101948 C62.62316,67.5364556 63.6764448,67.0722962 64.6166793,66.4177027 C65.5569137,65.7631091 66.3245619,64.8764456 66.919647,63.7576856 C67.5147321,62.6389257 67.8122702,61.2226444 67.8122702,59.5087994 C67.8122702,57.6997408 67.5147321,56.2239519 66.919647,55.0813885 C66.3245619,53.9388252 65.5569137,53.0462109 64.6166793,52.4035191 C63.6764448,51.7608272 62.62316,51.3204708 61.4567933,51.0824368 C60.2904265,50.8444027 59.1240773,50.7253875 57.9577105,50.7253875 L54.2086932,50.7253875 L54.2086932,68.2208014 L57.9577105,68.2208014 Z M76.9884362,46.8692555 L81.487257,46.8692555 L81.487257,72.1483433 L76.9884362,72.1483433 L76.9884362,46.8692555 Z M105.302443,52.7962732 C104.635948,51.8917439 103.767136,51.2312094 102.695983,50.8146498 C101.62483,50.3980903 100.577496,50.1898136 99.5539497,50.1898136 C98.2447625,50.1898136 97.0546102,50.4278441 95.9834571,50.9039121 C94.9123039,51.3799802 93.9899359,52.034564 93.2163253,52.8676831 C92.4427147,53.7008022 91.8476385,54.6767271 91.431079,55.7954871 C91.0145194,56.914247 90.8062427,58.1282024 90.8062427,59.4373895 C90.8062427,60.8179869 91.0085686,62.0795484 91.4132265,63.2221117 C91.8178844,64.3646751 92.3951082,65.3465508 93.1449154,66.1677682 C93.8947226,66.9889856 94.7932876,67.6257171 95.8406374,68.0779817 C96.8879871,68.5302464 98.0662379,68.7563753 99.3754251,68.7563753 C100.732219,68.7563753 101.934273,68.4885911 102.981623,67.9530145 C104.028972,67.4174379 104.873981,66.7092973 105.516672,65.8285714 L109.12287,68.3636211 C108.00411,69.7680219 106.635435,70.8570113 105.016803,71.6306219 C103.398172,72.4042325 101.50583,72.791032 99.3397202,72.791032 C97.3640377,72.791032 95.5490554,72.4637401 93.8947189,71.8091465 C92.2403824,71.1545529 90.8181503,70.2381357 89.6279802,69.0598672 C88.43781,67.8815987 87.5094912,66.477219 86.8429959,64.8466859 C86.1765006,63.2161528 85.843258,61.413072 85.843258,59.4373895 C85.843258,57.4141003 86.1943529,55.5872165 86.8965533,53.9566833 C87.5987537,52.3261502 88.5627771,50.9396228 89.7886523,49.7970594 C91.0145276,48.6544961 92.4605627,47.7737834 94.1268009,47.1548949 C95.7930391,46.5360064 97.6020706,46.2265668 99.5539497,46.2265668 C100.363265,46.2265668 101.208274,46.3039267 102.088999,46.4586488 C102.969725,46.6133709 103.814734,46.8514014 104.624049,47.1727473 C105.433365,47.4940933 106.195062,47.8927943 106.909165,48.3688624 C107.623267,48.8449304 108.230244,49.4162035 108.730116,50.0826988 L105.302443,52.7962732 Z M111.907854,46.8692555 L116.406675,46.8692555 L116.406675,72.1483433 L111.907854,72.1483433 L111.907854,46.8692555 Z M120.762676,59.4373895 C120.762676,57.4141003 121.101869,55.5872165 121.780266,53.9566833 C122.458663,52.3261502 123.398884,50.9396228 124.600956,49.7970594 C125.803027,48.6544961 127.23121,47.7737834 128.885547,47.1548949 C130.539883,46.5360064 132.342964,46.2265668 134.294843,46.2265668 C136.270526,46.2265668 138.091459,46.5360064 139.757697,47.1548949 C141.423935,47.7737834 142.864019,48.6544961 144.077993,49.7970594 C145.291966,50.9396228 146.238138,52.3261502 146.916535,53.9566833 C147.594932,55.5872165 147.934125,57.4141003 147.934125,59.4373895 C147.934125,61.413072 147.594932,63.2161528 146.916535,64.8466859 C146.238138,66.477219 145.291966,67.8815987 144.077993,69.0598672 C142.864019,70.2381357 141.423935,71.1545529 139.757697,71.8091465 C138.091459,72.4637401 136.270526,72.791032 134.294843,72.791032 C132.342964,72.791032 130.539883,72.4637401 128.885547,71.8091465 C127.23121,71.1545529 125.803027,70.2381357 124.600956,69.0598672 C123.398884,67.8815987 122.458663,66.477219 121.780266,64.8466859 C121.101869,63.2161528 120.762676,61.413072 120.762676,59.4373895 Z M125.654251,59.4373895 C125.654251,60.7941835 125.862528,62.0378927 126.279087,63.1685544 C126.695647,64.299216 127.290723,65.2810917 128.064333,66.1142108 C128.837944,66.9473299 129.754361,67.5959629 130.813613,68.0601293 C131.872864,68.5242956 133.045164,68.7563753 134.330548,68.7563753 C135.615932,68.7563753 136.794183,68.5242956 137.865336,68.0601293 C138.936489,67.5959629 139.858857,66.9473299 140.632467,66.1142108 C141.406078,65.2810917 142.001154,64.299216 142.417714,63.1685544 C142.834273,62.0378927 143.04255,60.7941835 143.04255,59.4373895 C143.04255,58.1282024 142.834273,56.914247 142.417714,55.7954871 C142.001154,54.6767271 141.412029,53.7008022 140.65032,52.8676831 C139.888611,52.034564 138.972194,51.3799802 137.901041,50.9039121 C136.829887,50.4278441 135.639735,50.1898136 134.330548,50.1898136 C133.021361,50.1898136 131.837159,50.4278441 130.777908,50.9039121 C129.718656,51.3799802 128.80819,52.034564 128.046481,52.8676831 C127.284772,53.7008022 126.695647,54.6767271 126.279087,55.7954871 C125.862528,56.914247 125.654251,58.1282024 125.654251,59.4373895 Z M152.290126,46.8692555 L158.252849,46.8692555 L169.999769,65.7928664 L170.071179,65.7928664 L170.071179,46.8692555 L174.57,46.8692555 L174.57,72.1483433 L168.857212,72.1483433 L156.860357,52.6177486 L156.788947,52.6177486 L156.788947,72.1483433 L152.290126,72.1483433 L152.290126,46.8692555 Z" id="2da-EDICION" fill="#513A57"></path>
                    </g>
                    <text id="13/11" font-family="AvenirNext-Regular, Avenir Next" font-size="36" font-weight="normal" fill="#4F3B57">
                        <tspan x="56.08" y="113">13/11</tspan>
                    </text>
                </g>
                <path d="M71.8061451,140.822334 C98.5721357,140.822334 116.985619,125.446126 127.995742,109.50043 C128.755061,108.361451 128.565231,107.602133 127.995742,107.222473 L124.768637,104.375027 C123.819488,103.615708 122.87034,104.375027 121.921191,105.893665 C114.897492,116.3343 98.7619654,126.205445 77.1213773,126.205445 C70.6671668,126.205445 59.8468727,124.686807 47.5079409,111.968216 C34.0300308,97.7309871 30.6130958,74.3819315 30.6130958,62.4226591 C30.4232661,34.3278605 42.1927087,9.08050769 69.9078479,9.08050769 C84.3349067,9.08050769 94.3958818,15.3448885 102.55856,23.3177367 C110.531408,31.4804147 115.656811,41.1617304 117.744937,48.7549192 C118.314427,50.4633867 119.073745,51.2227056 120.022894,50.8430462 L124.199148,49.7040678 C125.148297,49.5142381 125.338126,48.5650895 125.148297,47.2362815 C124.199148,41.5413899 120.782213,9.27033741 120.782213,5.66357273 C120.782213,3.00595664 120.402554,2.6262972 117.555108,2.6262972 C114.707662,2.6262972 114.328002,2.6262972 113.948343,3.76527552 L112.429705,8.51101853 C112.050046,9.83982657 111.100897,10.0296563 108.443281,8.70084825 C101.799241,5.09408357 87.5620119,0.728 70.2875074,0.728 C46.748622,0.728 30.9927552,9.64999685 20.1724612,21.2296098 C6.88438077,35.4668388 0.62,53.1210028 0.62,72.673464 C0.62,88.9988199 7.26404021,110.829238 21.3114395,123.357999 C33.2707119,133.988464 46.5587923,140.822334 71.8061451,140.822334 Z M186.273466,10.0296563 L211.33099,10.7889752 C216.456392,10.9788049 221.771624,13.4465913 225.758048,15.9143776 C230.124132,18.5719937 247.208807,35.6566685 248.157955,37.1753063 C248.727444,38.1244549 249.676593,38.3142846 250.435912,37.9346252 L253.473187,36.4159874 C254.422336,35.8464983 254.422336,35.4668388 254.042677,34.5176902 C253.283358,32.619393 247.018977,6.61272133 246.259658,3.95510525 C246.069828,3.38561608 245.690169,3.00595664 244.74102,3.00595664 C243.791872,3.00595664 240.185107,3.38561608 237.147832,3.38561608 L170.5176,3.5754458 C153.243095,3.5754458 146.599055,3.00595664 142.422801,3.00595664 C141.283823,3.00595664 141.093993,3.76527552 141.093993,4.33476469 L141.093993,8.89067797 C141.093993,10.219486 141.283823,10.7889752 142.043142,10.7889752 L149.446501,10.7889752 C154.571903,10.7889752 156.4702,12.1177832 157.229519,18.1923343 C157.419349,20.0906315 157.799008,43.4396871 157.799008,59.1955539 L157.799008,122.78851 C157.799008,129.43255 157.03969,130.761358 148.307522,130.761358 L142.612631,130.761358 C141.283823,130.761358 140.714334,131.330848 140.714334,132.469826 L140.714334,136.45625 C140.714334,137.974888 141.093993,138.544377 142.422801,138.544377 C144.131269,138.544377 146.599055,138.354547 150.585479,138.164718 C154.382073,138.164718 159.697306,137.974888 166.721005,137.974888 C199.561547,137.974888 219.683497,138.164718 232.022429,138.164718 C244.171531,138.354547 248.347785,138.544377 249.296934,138.544377 C251.57489,138.544377 252.903698,137.405399 253.473187,135.696931 L262.015525,107.032643 C262.205355,106.463154 262.015525,105.893665 261.256206,105.514006 L258.029101,103.615708 C257.459612,103.236049 256.890122,103.425879 256.130804,104.185198 C252.334209,108.741111 241.703745,120.510554 236.768172,124.496978 C231.832599,128.483402 226.137708,130.381699 222.341113,130.761358 C218.354689,131.141018 210.381841,131.330848 207.154736,131.330848 C197.66325,131.330848 194.056485,130.761358 191.209039,129.62238 C188.741253,128.483402 186.653126,125.066467 186.653126,115.195321 C186.653126,111.778386 185.703977,93.3649035 185.703977,83.1140986 L185.703977,71.7243154 C194.056485,71.7243154 199.941206,72.1039748 205.066609,72.8632937 C208.863203,73.4327829 213.419116,75.9005692 215.507243,79.5073339 C216.646222,81.7852906 218.544519,86.1513741 219.303838,89.1886497 C219.683497,90.5174577 220.063157,90.8971171 220.822476,90.7072874 L225.378389,89.7581388 C226.327537,89.5683091 227.086856,89.3784794 226.897027,88.2395011 C226.517367,84.2530769 225.758048,75.1412504 225.758048,66.5989129 C225.758048,59.9548727 225.758048,50.0837273 226.327537,46.856622 C226.517367,45.7176437 225.758048,45.527814 224.8089,45.3379843 L219.683497,44.7684951 C218.734349,44.7684951 218.164859,45.1481546 218.164859,46.4769626 C218.164859,50.0837273 215.886903,55.3989594 213.798776,58.2464053 C210.95133,61.6633402 208.293714,63.3718077 205.066609,64.1311266 C202.788652,64.7006157 194.436144,65.2701049 185.703977,65.2701049 L186.273466,10.0296563 Z M317.825463,55.3989594 C324.469503,55.3989594 329.215246,50.273557 329.215246,44.3888357 C329.215246,34.3278605 321.242398,32.619393 319.53393,31.6702444 C318.015292,30.9109255 316.686484,28.6329689 316.686484,26.1651825 C316.686484,16.8635262 324.089843,6.99238077 326.747459,5.09408357 C327.696608,4.33476469 328.645757,3.19578636 328.645757,2.24663776 C328.645757,1.29748916 327.886438,0.728 326.747459,0.728 C325.418651,0.728 323.520354,1.48731888 321.432227,2.6262972 C318.584782,4.14493497 300.171299,16.2940371 300.171299,36.2261577 C300.171299,48.7549192 309.093296,55.3989594 317.825463,55.3989594 Z M373.445571,84.8225661 C373.445571,91.656436 373.6354,112.537705 373.255741,120.510554 C372.876082,130.191869 370.028636,130.761358 359.588001,130.761358 L354.652428,130.761358 C353.133791,130.761358 351.994812,130.951188 351.994812,132.090166 L351.994812,137.215569 C351.994812,138.164718 352.374472,138.544377 353.51345,138.544377 C354.462599,138.544377 381.228589,137.974888 386.733651,137.974888 C389.960756,137.974888 415.777598,138.544377 417.106406,138.544377 C418.625044,138.544377 419.194533,138.164718 419.194533,137.215569 L419.194533,132.279996 C419.194533,131.330848 418.625044,130.761358 417.296236,130.761358 L410.462366,130.761358 C400.97088,130.761358 400.211561,129.43255 400.021732,119.561405 C400.021732,117.473278 399.831902,84.8225661 399.831902,74.9514206 L399.831902,66.9785724 C399.831902,42.4905385 400.401391,12.6872724 400.401391,11.1686346 C400.401391,9.64999685 399.831902,8.32118881 398.692923,8.32118881 C397.364115,8.32118881 396.414967,8.89067797 395.086159,9.46016713 L348.957537,32.0499039 C347.628729,32.8092227 347.438899,33.5685416 347.818558,34.3278605 L349.147366,38.1244549 C349.527026,38.8837738 350.286345,38.8837738 351.235493,38.6939441 L360.53715,36.036328 C364.713404,34.8973497 367.18119,34.7075199 369.079487,34.7075199 C372.496422,34.7075199 373.445571,38.8837738 373.445571,43.4396871 L373.445571,84.8225661 Z M465.892644,11.1686346 C456.211329,11.1686346 454.692691,10.219486 455.07235,7.56186993 C455.45201,4.71442413 454.692691,4.14493497 452.604564,4.14493497 C450.326607,4.14493497 450.136778,4.33476469 449.757118,5.47374301 L437.797846,40.782071 C437.228357,42.4905385 437.228357,42.6803682 438.936824,43.6295168 C440.645292,44.5786654 441.78427,44.7684951 442.923248,43.2498573 C448.42831,36.4159874 450.516437,32.8092227 461.90622,32.8092227 L505.756886,32.8092227 C497.214548,46.0973032 463.804518,100.768263 460.577412,106.652984 C456.970648,112.917365 452.224905,122.78851 452.224905,128.863061 C452.224905,136.076591 457.160477,140.822334 463.614688,140.822334 C472.346855,140.822334 477.472257,133.608804 479.560384,126.205445 C484.685787,107.222473 488.672211,90.8971171 498.923016,65.6497643 C506.516205,46.6667923 518.855136,24.456715 521.512753,20.2804612 C522.841561,18.1923343 524.929687,14.7753993 524.929687,13.2567615 C524.929687,11.7381238 523.980539,11.1686346 523.03139,11.1686346 L465.892644,11.1686346 Z" id="CE-‘17" fill="#FFFFFF"></path>
                <text id="CUSTOMER-ENGAGEMENT" font-family="ACaslonPro-Semibold, Adobe Caslon Pro" font-size="36" font-weight="500" fill="#FFFFFF">
                    <tspan x="14.62" y="194">CUSTOMER ENGAGEMENT</tspan>
                </text>
            </g>
        </g>
    </g>
</svg>